<svg xmlns="http://www.w3.org/2000/svg" width="24" height="24" viewBox="0 0 24 24">
  <g id="vuesax_linear_facebook" data-name="vuesax/linear/facebook" transform="translate(-416 -469)">
    <g id="facebook">
      <path id="BG_1" data-name="BG 1" d="M0,0H24V24H0Z" transform="translate(416 469)" fill="none" opacity="0.58"/>
      <path id="Vector" d="M5,3.3V6.2H7.6c.2,0,.3.2.3.4L7.5,8.5c0,.1-.2.2-.3.2H5V16H2V8.8H.3A.265.265,0,0,1,0,8.5V6.6a.265.265,0,0,1,.3-.3H2V3A2.946,2.946,0,0,1,5,0H7.7A.265.265,0,0,1,8,.3V2.7a.265.265,0,0,1-.3.3H5.3A.265.265,0,0,0,5,3.3Z" transform="translate(425 475)" fill="none" stroke="#ffffff" stroke-linecap="round" stroke-width="1.5"/>
      <path id="Vector-2" data-name="Vector" d="M13,20H7c-5,0-7-2-7-7V7C0,2,2,0,7,0h6c5,0,7,2,7,7v6C20,18,18,20,13,20Z" transform="translate(418 471)" fill="none" stroke="#ffffff" stroke-linecap="round" stroke-linejoin="round" stroke-width="1.5"/>
      <path id="Vector-3" data-name="Vector" d="M0,0H24V24H0Z" transform="translate(416 469)" fill="none" opacity="0"/>
    </g>
  </g>
</svg>
