<?xml version="1.0" encoding="utf-8"?>
<!-- Generator: Adobe Illustrator 27.0.0, SVG Export Plug-In . SVG Version: 6.00 Build 0)  -->
<svg version="1.1" id="Layer_1" xmlns="http://www.w3.org/2000/svg" xmlns:xlink="http://www.w3.org/1999/xlink" x="0px" y="0px"
	 viewBox="0 0 24 24" style="enable-background:new 0 0 24 24;" xml:space="preserve">
<style type="text/css">
	.st0{fill:none;stroke:#ffffff;stroke-width:1.5;stroke-linecap:round;stroke-linejoin:round;}
	.st1{fill:none;}
	.st2{fill:none;stroke:#ffffff;stroke-width:2;stroke-linecap:round;stroke-linejoin:round;}
</style>
<g id="vuesax_linear_instagram" transform="translate(-300 -444)">
	<g id="instagram">
		<path id="Vector" class="st0" d="M309,466h6c5,0,7-2,7-7v-6c0-5-2-7-7-7h-6c-5,0-7,2-7,7v6C302,464,304,466,309,466z"/>
		<path id="Vector-2" class="st1" d="M300,444h24v24h-24V444z"/>
		<path id="Vector-3" class="st0" d="M315.5,456c0,1.9-1.6,3.5-3.5,3.5s-3.5-1.6-3.5-3.5s1.6-3.5,3.5-3.5S315.5,454.1,315.5,456
			L315.5,456z"/>
		<path id="Vector-4" class="st2" d="M317.6,451L317.6,451"/>
	</g>
</g>
</svg>
