<svg xmlns="http://www.w3.org/2000/svg" width="24" height="24" viewBox="0 0 24 24">
  <g id="instagram" transform="translate(-300 -444)">
    <path id="Vector" d="M0,0H24V24H0Z" transform="translate(300 444)" fill="none" opacity="0"/>
    <path id="tiktok-logo-thin-svgrepo-com" d="M46.89,29.4a5.021,5.021,0,0,1-5.016-5.016A.386.386,0,0,0,41.489,24H37.631a.386.386,0,0,0-.386.386V36.732a2.315,2.315,0,1,1-3.307-2.092.386.386,0,0,0,.22-.348V30.275a.386.386,0,0,0-.453-.38,6.945,6.945,0,1,0,8.17,6.837V32.627a9.576,9.576,0,0,0,5.016,1.4.386.386,0,0,0,.386-.386V29.787a.386.386,0,0,0-.386-.386Zm-.386,3.85a8.8,8.8,0,0,1-4.79-1.657.386.386,0,0,0-.611.313v4.824a6.173,6.173,0,1,1-7.716-5.979v3.306a3.087,3.087,0,1,0,4.63,2.673V24.772h3.1A5.8,5.8,0,0,0,46.5,30.16Z" transform="translate(274.515 422.306)" fill="#ffffff" stroke="#ffffff" stroke-width="0.5"/>
  </g>
</svg>
